<svg width="256" height="256" fill="none" xmlns="http://www.w3.org/2000/svg"><path fill="#fff" d="M0 0h256v256H0z"/><g clip-path="url(#clip0)"><path d="M129.6 241.8c.5-.3 28-14.7 53.9-48.1-6.3-26.2-21.1-49.1-41.3-65.7 4.5-2.5 9.3-4.6 14.2-6.5 17 15.4 30.1 35.1 37.6 57.2 19.1-29.5 35-70.4 35-125V50l-3.6-.8c-34.2-7.5-54.3-18.1-69-25.9-11.5-6-19.8-10.3-28.9-10.3h-.4c-9 .1-17.1 4.4-28.4 10.3C84 31 63.8 41.7 29.7 49.2L26 50v3.7c0 58.5 17.1 100.9 37.1 130.4 16.3-55.8 67.4-96.7 128.1-98l-16.6-16.6 10.2-10.2 33.8 33.8-33.8 33.8-10.2-10.2 16.3-16.3c-58.1 1.5-106 43.2-116.7 98.5 25.1 30.4 50.8 42.7 51.3 42.9l1.5.7.5.2 2.1-.9zM99.2 105.3c-10-2.9-20.5-4.6-31.3-4.9l16.4 16.4L74.1 127 40.3 93.1l33.8-33.8 10.2 10.2-16.6 16.6c16.1.3 31.6 3.5 45.9 9-5 3.2-9.8 6.5-14.4 10.2z" fill="#E31E41"/><path d="M190.9 100.5l-16.3 16.3 10.2 10.2 33.8-33.8-33.8-33.8-10.2 10.2 16.6 16.6c-60.7 1.3-111.8 42.2-128.1 98 3.6 5.4 7.4 10.3 11.1 14.8 10.8-55.3 58.7-97.1 116.7-98.5zM84.3 69.5L74.1 59.3 40.3 93.1l33.8 33.8 10.2-10.2-16.4-16.3c10.8.3 21.3 2 31.3 4.9 4.6-3.7 9.4-7.1 14.4-10.2-14.3-5.5-29.8-8.7-45.9-9l16.6-16.6z" fill="#fff"/><path d="M156.4 121.6c-4.9 1.8-9.7 3.9-14.2 6.5 20.2 16.6 35 39.5 41.3 65.7 3.6-4.6 7.1-9.6 10.6-14.9-7.6-22.3-20.7-41.9-37.7-57.3z" fill="#fff"/><path d="M225.4 49.2c-34.2-7.5-54.3-18.1-69-25.9-11.5-6-19.8-10.3-28.9-10.3v90.4c18.9-10.6 40.6-16.8 63.7-17.3l-16.6-16.6 10.2-10.2 33.8 33.8-33.8 33.8-10.2-10.2 16.3-16.3c-23.4.6-45.1 7.7-63.4 19.6v122.6h.1l2-1c.5-.3 28-14.7 53.9-48.1-6.3-26.2-21.1-49.1-41.3-65.7 4.5-2.5 9.3-4.6 14.2-6.5 17 15.4 30.1 35.1 37.6 57.2 19.1-29.3 35-70.2 35-124.8V50l-3.6-.8z" fill="#D71129"/><path d="M190.9 100.5l-16.3 16.3 10.2 10.2 33.8-33.8-33.8-33.8-10.2 10.2 16.6 16.6c-60.7 1.3-111.8 42.2-128.1 98 3.6 5.4 7.4 10.3 11.1 14.8 10.8-55.3 58.7-97.1 116.7-98.5zM84.3 69.5L74.1 59.3 40.3 93.1l33.8 33.8 10.2-10.2-16.4-16.3c10.8.3 21.3 2 31.3 4.9 4.6-3.7 9.4-7.1 14.4-10.2-14.3-5.5-29.8-8.7-45.9-9l16.6-16.6z" fill="#fff"/><path d="M156.4 121.6c-4.9 1.8-9.7 3.9-14.2 6.5 20.2 16.6 35 39.5 41.3 65.7 3.6-4.6 7.1-9.6 10.6-14.9-7.6-22.3-20.7-41.9-37.7-57.3z" fill="#fff"/></g><defs><clipPath id="clip0"><path d="M26 13h203v229.8H26V13z" fill="#fff"/></clipPath></defs></svg>